<?xml version="1.0" encoding="UTF-8" standalone="no"?>
<!DOCTYPE svg PUBLIC "-//W3C//DTD SVG 1.1//EN" "http://www.w3.org/Graphics/SVG/1.1/DTD/svg11.dtd">
<svg width="100%" height="100%" viewBox="0 0 1024 1024" version="1.1" xmlns="http://www.w3.org/2000/svg" xmlns:xlink="http://www.w3.org/1999/xlink" xml:space="preserve" xmlns:serif="http://www.serif.com/" style="fill-rule:evenodd;clip-rule:evenodd;stroke-linecap:round;stroke-linejoin:round;stroke-miterlimit:1.5;">
    <g transform="matrix(1,0,0,1,-306,0)">
        <g id="Artboard1" transform="matrix(13.2987,0,0,11.907,4042.94,1059.72)">
            <rect x="-281" y="-89" width="77" height="86" style="fill-opacity:0;"/>
            <clipPath id="_clip1">
                <rect x="-281" y="-89" width="77" height="86"/>
            </clipPath>
            <g clip-path="url(#_clip1)">
                <g transform="matrix(1.84505,0,0,1.84505,204.923,28.4126)">
                    <g transform="matrix(0.120313,0,0,0.0844813,-329.396,-75.9089)">
                        <path d="M716,458.412L716,597.588C716,652.455 687.995,697 653.5,697C619.005,697 591,652.455 591,597.588L591,458.412C591,403.545 619.005,359 653.5,359C687.995,359 716,403.545 716,458.412Z" style="fill:white;stroke:white;stroke-opacity:0;stroke-width:3.38px;"/>
                    </g>
                    <g transform="matrix(0.120313,0,0,0.0496949,-329.396,-81.4772)">
                        <path d="M716,528C716,621.274 687.995,697 653.5,697C619.005,697 591,621.274 591,528C591,434.726 619.005,359 653.5,359C687.995,359 716,434.726 716,528Z" style="fill:white;stroke:white;stroke-opacity:0;stroke-width:3.74px;"/>
                    </g>
                    <g transform="matrix(0.120313,0,0,0.0844813,-312.853,-75.9089)">
                        <path d="M716,458.412L716,597.588C716,652.455 687.995,697 653.5,697C619.005,697 591,652.455 591,597.588L591,458.412C591,403.545 619.005,359 653.5,359C687.995,359 716,403.545 716,458.412Z" style="fill:white;stroke:white;stroke-opacity:0;stroke-width:3.38px;"/>
                    </g>
                    <g transform="matrix(0.120313,0,0,0.0496949,-312.853,-81.4772)">
                        <path d="M716,528C716,621.274 687.995,697 653.5,697C619.005,697 591,621.274 591,528C591,434.726 619.005,359 653.5,359C687.995,359 716,434.726 716,528Z" style="fill:white;stroke:white;stroke-opacity:0;stroke-width:3.74px;"/>
                    </g>
                    <g transform="matrix(0.0601562,0,0,0.0248474,-273.541,-68.3577)">
                        <path d="M716,528C716,621.274 687.995,697 653.5,697C619.005,697 591,621.274 591,528C591,434.726 619.005,359 653.5,359C687.995,359 716,434.726 716,528Z" style="stroke:white;stroke-opacity:0;stroke-width:7.49px;"/>
                    </g>
                    <g transform="matrix(0.0601562,0,0,0.0248474,-290.084,-68.3577)">
                        <path d="M716,528C716,621.274 687.995,697 653.5,697C619.005,697 591,621.274 591,528C591,434.726 619.005,359 653.5,359C687.995,359 716,434.726 716,528Z" style="stroke:white;stroke-opacity:0;stroke-width:7.49px;"/>
                    </g>
                </g>
            </g>
        </g>
    </g>
</svg>
