<?xml version="1.0" encoding="UTF-8"?>
<svg width="17px" height="17px" viewBox="0 0 17 17" version="1.1" xmlns="http://www.w3.org/2000/svg" xmlns:xlink="http://www.w3.org/1999/xlink">
    <title>style=fill copy</title>
    <g id="Page-1" stroke="none" stroke-width="1" fill="none" fill-rule="evenodd">
        <g id="style=fill-copy" transform="translate(1.5078, 1.519)" fill="#FF1A1A" fill-rule="nonzero">
            <path d="M6.50141621,0 C2.91657274,0 0,2.91657274 0,6.50141621 C0,10.0862597 2.91657274,13.0028324 6.50141621,13.0028324 C10.0862597,13.0028324 13.0028324,10.0862597 13.0028324,6.50141621 C13.0028324,2.91657274 10.0862597,0 6.50141621,0 Z M6.50141621,9.99936578 C6.37777595,9.99936578 6.25691228,9.96270226 6.15410916,9.89401141 C6.05130605,9.82532056 5.97118095,9.72768717 5.92386587,9.61345847 C5.87655079,9.49922977 5.86417078,9.37353555 5.88829179,9.25227101 C5.91241281,9.13100647 5.97195131,9.01961797 6.05937818,8.9321911 C6.14680504,8.84476424 6.25819354,8.78522573 6.37945809,8.76110472 C6.50072263,8.7369837 6.62641637,8.74936372 6.74064507,8.7966788 C6.85487377,8.84399387 6.95250716,8.92411897 7.02119801,9.02692209 C7.08988886,9.1297252 7.12655238,9.25058935 7.12655238,9.37422961 C7.12655238,9.54002603 7.06069049,9.69903138 6.94345471,9.81626716 C6.82621893,9.93350293 6.66721263,9.99936578 6.50141621,9.99936578 Z M7.18031413,3.71205843 L7.00090035,7.52538956 C7.00090035,7.65802671 6.94820988,7.7852308 6.85442126,7.87901941 C6.76063265,7.97280803 6.63342808,8.0254985 6.50079094,8.0254985 C6.36815379,8.0254985 6.24094923,7.97280803 6.14716061,7.87901941 C6.05337199,7.7852308 6.000682,7.65802671 6.000682,7.52538956 L5.82126822,3.71393424 L5.82126822,3.7123713 C5.81733616,3.62076604 5.83198336,3.52931227 5.86432837,3.44351725 C5.89667338,3.35772222 5.94604692,3.27936037 6.00947584,3.21315043 C6.07290476,3.14694048 6.14907686,3.09425215 6.23340586,3.05825762 C6.31773486,3.02226309 6.40847653,3.00370701 6.50016614,3.00370701 C6.59185576,3.00370701 6.68259648,3.02226309 6.76692547,3.05825762 C6.85125447,3.09425215 6.92742705,3.14694048 6.99085597,3.21315043 C7.05428489,3.27936037 7.10365843,3.35772222 7.13600344,3.44351725 C7.16834845,3.52931227 7.18299565,3.62076604 7.17906359,3.7123713 L7.18031413,3.71205843 Z" id="Vector"></path>
        </g>
    </g>
</svg>